<svg width="264" height="175" viewBox="0 0 264 175" fill="none" xmlns="http://www.w3.org/2000/svg">
<path d="M78.3768 25.6283C93.9591 9.10157 114.677 0 136.713 0C158.75 0 179.467 9.10157 195.05 25.6283C210.632 42.1546 219.213 64.1279 219.213 87.5C219.213 110.872 210.632 132.845 195.05 149.372C179.467 165.898 158.75 175 136.713 175C114.677 175 93.9591 165.898 78.3768 149.372C62.7948 132.845 54.2133 110.872 54.2133 87.5C54.2133 64.1279 62.7948 42.1546 78.3768 25.6283ZM136.713 169.128C179.151 169.128 213.676 132.51 213.676 87.5C213.676 42.4902 179.151 5.87248 136.713 5.87248C94.2758 5.87248 59.7503 42.4902 59.7503 87.5C59.7503 132.51 94.2758 169.128 136.713 169.128Z" fill="#FFC000"/>
<path d="M110.714 54.3115C110.183 54.7808 109.487 55.0154 108.791 55.0154C108.095 55.0154 107.399 54.7808 106.868 54.3115C105.806 53.3724 105.806 51.8506 106.868 50.9118L115.571 43.2192C116.633 42.2808 118.356 42.2808 119.417 43.2192C120.48 44.1584 120.48 45.6802 119.417 46.619L110.714 54.3115Z" fill="#FFC000"/>
<path d="M106.827 77.5432L137.035 43.3682C138.041 42.2311 139.671 42.2311 140.676 43.3682C141.681 44.5061 141.681 46.35 140.676 47.4875L110.468 81.6625C109.965 82.2311 109.306 82.5154 108.647 82.5154C107.988 82.5154 107.329 82.2311 106.827 81.6625C105.821 80.5247 105.821 78.6807 106.827 77.5432Z" fill="#FFC000"/>
<path d="M148.753 50.8061C149.773 49.724 151.428 49.724 152.448 50.8061C153.469 51.8889 153.469 53.6436 152.448 54.7261L117.603 91.683C117.093 92.224 116.424 92.4946 115.755 92.4946C115.087 92.4946 114.418 92.224 113.908 91.683C112.887 90.6002 112.887 88.8454 113.908 87.763L148.753 50.8061Z" fill="#FFC000"/>
<path d="M155.826 63.2895C156.846 62.2074 158.501 62.2074 159.521 63.2895C160.542 64.3723 160.542 66.127 159.521 67.2095L124.676 104.166C124.166 104.707 123.497 104.978 122.828 104.978C122.16 104.978 121.491 104.707 120.981 104.166C119.96 103.084 119.96 101.329 120.981 100.246L155.826 63.2895Z" fill="#FFC000"/>
<path d="M155.665 75.9105C156.722 74.7235 158.437 74.7235 159.494 75.9105C160.551 77.0984 160.551 79.0233 159.494 80.2107L124.837 119.13C124.308 119.724 123.615 120.02 122.923 120.02C122.23 120.02 121.537 119.724 121.008 119.13C119.951 117.942 119.951 116.017 121.008 114.83L155.665 75.9105Z" fill="#FFC000"/>
<path d="M155.312 93.2942C156.45 92.2485 158.295 92.2485 159.433 93.2942C160.571 94.3406 160.571 96.0364 159.433 97.0824L129.904 124.226C129.335 124.749 128.589 125.01 127.843 125.01C127.098 125.01 126.352 124.749 125.783 124.226C124.645 123.179 124.645 121.484 125.783 120.437L155.312 93.2942Z" fill="#FFC000"/>
<path d="M155.897 113.271C156.901 112.206 158.53 112.206 159.533 113.271C160.538 114.336 160.538 116.063 159.533 117.128L145.819 131.674C145.317 132.206 144.659 132.472 144.001 132.472C143.343 132.472 142.685 132.206 142.183 131.674C141.178 130.608 141.178 128.882 142.183 127.817L155.897 113.271Z" fill="#FFC000"/>
<path d="M88.7218 87.7286C89.2921 87.7286 89.8521 87.7744 90.3989 87.8623C87.6851 80.743 86.7318 72.9607 87.6938 65.0575C90.2136 44.3575 106.557 27.6439 126.556 25.3162C139.187 23.8466 151.821 28.0012 161.216 36.7159C168.101 43.1017 172.832 51.514 174.875 60.6941C178.144 60.1268 181.555 60.3071 184.883 61.2432C192.206 63.3032 197.931 68.6369 200.196 75.5112C200.59 76.7064 200.244 78.0303 199.322 78.8555C196.879 81.0417 193.96 82.5562 190.808 83.3574C191.037 83.5773 191.267 83.7952 191.489 84.0254C196.854 89.5914 199.263 97.1724 197.932 104.305C197.701 105.545 196.766 106.515 195.571 106.755C194.324 107.005 193.063 107.128 191.802 107.128C186.109 107.128 180.415 104.626 176.023 100.07C176.02 100.067 176.017 100.064 176.014 100.06V113.927C176.014 123.377 172.518 132.313 166.17 139.088C159.835 145.849 151.35 149.727 142.279 150.01C141.946 150.02 141.614 150.026 141.281 150.026C133.651 150.026 126.111 147.304 119.948 142.305C114.137 137.592 109.899 131.132 107.836 123.938C105.667 125.801 102.886 126.923 99.857 126.923C92.9496 126.923 87.3299 121.093 87.3299 113.927C87.3299 112.696 87.4994 111.506 87.8088 110.378C82.2046 109.894 77.7855 105.011 77.7855 99.0743C77.7855 92.8185 82.6914 87.7286 88.7218 87.7286ZM176.013 88.6837C176.85 91.2635 178.3 93.6808 180.241 95.6941C183.581 99.1593 188.046 101.052 192.31 100.923C192.441 96.5011 190.611 91.8671 187.27 88.4007C184.11 85.1224 180.043 83.2671 176.013 83.1697V88.6837ZM176.014 71.0195V75.0648C177.453 75.9865 179.029 76.6944 180.72 77.1705C185.28 78.452 190.065 77.7956 193.697 75.4778C191.692 71.5744 187.882 68.4983 183.322 67.2152C180.814 66.5105 178.258 66.3814 175.823 66.8097C175.947 68.2037 176.014 69.6081 176.014 71.0195ZM106.55 102.95C110.053 105.257 112.384 109.314 112.384 113.927C112.384 114.791 112.301 115.634 112.145 116.452C112.468 117.636 112.766 118.84 113.017 120.043L113.081 120.34C116.112 134.149 128.586 144.266 142.099 143.824C149.613 143.59 156.642 140.376 161.892 134.774C167.152 129.161 170.048 121.757 170.048 113.927V89.2428C170.047 89.2019 170.047 89.1615 170.048 89.1206V76.885C170.041 76.7633 170.041 76.6412 170.048 76.5191V71.0195C170.048 59.7006 165.38 48.8793 157.24 41.3293C148.989 33.6761 138.327 30.1734 127.22 31.466C109.925 33.4793 95.7907 47.9325 93.6118 65.8327C92.2652 76.8937 95.2383 87.6758 101.982 96.1942C103.631 98.2752 105.145 100.504 106.483 102.819C106.508 102.862 106.528 102.907 106.55 102.95ZM99.857 120.734C103.475 120.734 106.419 117.68 106.419 113.927C106.419 110.173 103.475 107.119 99.857 107.119C96.2389 107.119 93.2952 110.173 93.2952 113.927C93.2952 117.68 96.2389 120.734 99.857 120.734ZM88.7218 104.231C91.4631 104.231 93.6929 101.918 93.6929 99.0743C93.6929 96.2305 91.4631 93.9172 88.7218 93.9172C85.9806 93.9172 83.7508 96.2305 83.7508 99.0743C83.7508 101.918 85.9806 104.231 88.7218 104.231Z" fill="#FFC000"/>
<path d="M103.159 127.021C103.539 125.229 104.462 124.503 105.221 125.398C105.981 126.295 106.288 128.474 105.909 130.267L104.269 138.008C104 139.28 103.457 140.015 102.893 140.015C102.662 140.015 102.428 139.891 102.207 139.631C101.448 138.734 101.14 136.555 101.52 134.762L103.159 127.021Z" fill="#FFC000"/>
<path d="M175.617 125.015C177.564 125.015 179.143 126.693 179.143 128.765C179.143 130.836 177.564 132.515 175.617 132.515H175.579C173.632 132.515 172.072 130.836 172.072 128.765C172.072 126.693 173.67 125.015 175.617 125.015Z" fill="#FFC000"/>
<path d="M81.9659 75.7364C83.1666 74.7816 85.1135 74.7816 86.3138 75.7364C87.5145 76.6919 87.5145 78.2402 86.3138 79.1953L83.0342 81.8041C82.4341 82.2816 81.647 82.5203 80.8603 82.5203C80.0736 82.5203 79.2865 82.2816 78.6863 81.8041C77.4856 80.8487 77.4856 79.3003 78.6863 78.3452L81.9659 75.7364Z" fill="#FFC000"/>
<path d="M75.436 70.0145C76.7343 70.0145 77.7869 71.1335 77.7869 72.5145C77.7869 73.8955 76.7343 75.0145 75.436 75.0145H75.4109C74.1126 75.0145 73.0726 73.8955 73.0726 72.5145C73.0726 71.1335 74.1377 70.0145 75.436 70.0145Z" fill="#FFC000"/>
<path d="M82.5001 69.9779C79.8965 69.9779 77.7858 68.8832 77.7858 67.5323V64.9236C77.7858 63.5726 79.8965 62.4779 82.5001 62.4779C85.1036 62.4779 87.2144 63.5726 87.2144 64.9236V67.5323C87.2144 68.8832 85.1036 69.9779 82.5001 69.9779Z" fill="#FFC000"/>
<path d="M180.417 112.665C181.556 112.216 182.941 112.58 183.51 113.476L185.97 117.346C186.539 118.242 186.078 119.332 184.939 119.78C184.607 119.911 184.256 119.972 183.909 119.972C183.064 119.972 182.249 119.605 181.845 118.969L179.386 115.099C178.817 114.202 179.278 113.113 180.417 112.665Z" fill="#FFC000"/>
<path d="M180.807 47.9724C179.999 49.2439 178.371 49.9788 176.679 49.9788C175.986 49.9788 175.283 49.8549 174.621 49.5946C172.343 48.6981 171.42 46.519 172.559 44.726L177.477 36.9851C178.616 35.1925 181.386 34.4668 183.664 35.3624C185.941 36.2589 186.865 38.4379 185.726 40.2309L180.807 47.9724Z" fill="#FFC000"/>
<path d="M33.2246 5.00537C30.745 5.00537 28.7348 6.98795 28.7348 9.43341V42.7913H23.347V9.43341C23.347 6.98795 21.3368 5.00537 18.8572 5.00537C16.3776 5.00537 14.3674 6.98795 14.3674 9.43341V42.7913H8.97962V9.43341C8.97962 6.98795 6.96938 5.00537 4.48981 5.00537C2.01024 5.00537 0 6.98795 0 9.43341V51.9426C0 59.5931 6.31087 65.8172 14.0681 65.8172H14.3674V160.577C14.3674 163.023 16.3776 165.005 18.8572 165.005C21.3368 165.005 23.347 163.023 23.347 160.577V65.8172H23.6463C31.4035 65.8172 37.7144 59.5931 37.7144 51.9426V9.43341C37.7144 6.98795 35.7041 5.00537 33.2246 5.00537ZM28.7348 51.9426C28.7348 54.7099 26.4522 56.9611 23.6463 56.9611H14.0681C11.2622 56.9611 8.97962 54.7099 8.97962 51.9426V51.6474H28.7348V51.9426Z" fill="#FFC000"/>
<path d="M254.937 5.00537C250.261 5.00537 246.384 8.63932 245.915 13.5001L238.126 102.648C237.787 106.52 239.045 110.387 241.577 113.257C244.109 116.127 247.713 117.773 251.467 117.773H255.449V160.577C255.449 163.023 257.364 165.005 259.725 165.005C262.086 165.005 264 163.023 264 160.577V14.3922C264 9.21615 259.934 5.00537 254.937 5.00537ZM255.45 108.917H251.467C250.089 108.917 248.819 108.337 247.89 107.283C246.96 106.23 246.517 104.867 246.641 103.445L254.427 14.3391C254.454 14.0669 254.673 13.8609 254.938 13.8609C255.22 13.8609 255.45 14.0988 255.45 14.3916V108.917Z" fill="#FFC000"/>
</svg>
