<svg width="574" height="270" viewBox="0 0 574 270" fill="none" xmlns="http://www.w3.org/2000/svg">
<path d="M257.069 173.627C257.069 173.627 257.553 173.85 257.974 174.038C257.744 173.933 257.454 173.803 257.069 173.627Z" fill="#F7C143"/>
<path d="M331.506 171.899C329.839 169.751 328.489 167.639 327.445 165.755C325.7 162.577 324.822 160.038 324.744 159.05C324.61 157.292 321.898 156.173 321.171 158.14C321.171 158.14 320.87 162.53 322.771 167.722C322.781 167.753 322.796 167.784 322.807 167.82C289.135 186.418 270.568 170.682 260.445 168.356C256.509 167.452 251.761 171.197 257.069 173.627C257.069 173.627 274.5 185.5 293.5 185.5C323.5 182 320.984 177.913 320.984 177.913C320.984 177.913 323.575 177.934 327.658 175.702C329.018 177.148 330.655 178.512 332.639 179.708C338.554 184.109 338.736 180.322 333.143 173.892C332.561 173.226 332.02 172.565 331.506 171.899Z" fill="#F7C143"/>
<path d="M356.981 101.363C342.859 92.4045 325.45 94.574 318.096 106.206C310.746 117.838 316.236 134.526 330.358 143.48C344.48 152.437 361.889 150.269 369.243 138.636C376.593 127.01 371.103 110.316 356.981 101.363Z" fill="#F7C143"/>
<path d="M263.65 106.206C256.295 94.5735 238.886 92.4046 224.764 101.363C210.643 110.316 205.152 127.01 212.502 138.636C219.851 150.269 237.265 152.438 251.387 143.48C265.51 134.526 270.999 117.838 263.65 106.206Z" fill="#F7C143"/>
<path d="M285.827 159.471C294.37 159.471 301.3 155.554 301.3 150.716C301.3 145.883 294.371 141.96 285.827 141.96C277.283 141.96 270.36 145.883 270.36 150.716C270.36 155.554 277.283 159.471 285.827 159.471Z" fill="#F7C143"/>
<path d="M449.269 51.6872C449.269 24.9004 427.585 3.18198 400.843 3.18198C381.886 3.18198 365.463 14.0963 357.517 30.0043C357.277 30.478 357.065 30.9671 356.841 31.4455C355.73 30.9511 354.608 30.4721 353.481 30.0043C352.946 29.7705 352.406 29.5573 351.866 29.3382C333.984 22.1957 314.103 18.4506 293.224 18.4506C274.676 18.4506 256.904 21.4052 240.616 27.0864C239.941 27.3203 239.271 27.5755 238.601 27.8254C237.786 26.1403 236.881 24.5061 235.884 22.9352C227.283 9.4352 212.195 0.487305 195.03 0.487305C168.288 0.486713 146.604 22.2063 146.604 48.992C146.604 64.6348 153.995 78.5357 165.462 87.4048C166.397 88.1284 167.363 88.8039 168.345 89.4547C167.815 90.5572 167.301 91.6703 166.808 92.7947C160.108 107.896 156.457 124.918 156.466 143.302C156.466 162.187 160.304 179.687 167.327 195.189C172.583 206.811 179.625 217.314 188.081 226.496C200.763 240.256 216.626 251.025 234.508 258.328C252.4 265.637 272.318 269.503 293.223 269.513C311.817 269.503 329.616 266.449 345.903 260.639C358.129 256.279 369.488 250.369 379.678 243.029C394.958 232.027 407.584 217.783 416.346 200.902C425.118 184.031 429.989 164.549 429.989 143.303C429.989 126.126 426.8 110.155 420.921 95.8228C422.058 95.3029 423.18 94.7564 424.266 94.153C439.172 85.8861 449.269 69.9673 449.269 51.6872ZM400.339 186.658C396.007 196.24 390.227 204.871 383.22 212.482C372.719 223.869 359.438 232.953 344.148 239.205C328.872 245.448 311.599 248.856 293.223 248.856C276.894 248.856 261.432 246.166 247.466 241.182C236.995 237.442 227.361 232.417 218.812 226.252C205.999 217.018 195.612 205.262 188.403 191.371C181.194 177.476 177.101 161.417 177.096 143.303C177.101 127.827 180.088 113.931 185.463 101.654C185.666 101.155 185.884 100.682 186.097 100.198C190.424 90.7194 196.189 82.2138 203.185 74.7385C213.666 63.5276 226.941 54.6377 242.232 48.5301C242.933 48.2495 243.64 47.9682 244.345 47.7083C259.101 42.1212 275.664 39.1145 293.224 39.1145C309.589 39.1145 325.081 41.7257 339.053 46.5951C342.252 47.7083 345.374 48.9411 348.407 50.2887C355.32 53.3576 361.775 57.015 367.713 61.213C380.521 70.2752 390.872 81.8189 398.07 95.5427C398.854 97.0253 399.587 98.534 400.288 100.074C406.1 112.736 409.357 127.162 409.362 143.304C409.355 159.398 406.114 173.881 400.339 186.658Z" fill="#F7C143"/>
<path d="M536.047 37.2993C524.24 49.2877 493.836 76.0935 479.054 105.408C456.113 150.913 487.523 157.267 473.942 187.756L445.773 248.264L469.745 259.46L469.721 259.815C469.721 259.815 469.778 259.692 469.861 259.514C471.743 255.472 494.158 207.324 517.024 158.207C539.643 109.623 562.684 60.1313 566.657 51.5966C574.82 34.0627 554.426 18.6455 536.047 37.2993Z" fill="#FFC000"/>
<path d="M71.0124 24.878L93.1864 72.5078C94.6076 75.5604 93.2867 79.1723 90.2481 80.5915L88.7765 81.2789C85.7379 82.6981 82.1196 81.3932 80.6984 78.3405L58.4228 30.4927C54.7684 22.643 48.3974 22.765 43.3352 25.1294C38.273 27.4937 34.0845 32.3037 37.7389 40.1534L60.0145 88.0013C61.4356 91.054 60.1078 94.6691 57.0691 96.0883L55.5976 96.7757C52.559 98.1949 48.9476 96.8867 47.5264 93.8341L25.3523 46.2043C18.8111 32.1537 -0.996685 41.9861 5.39532 55.7161C13.0499 72.1582 26.5701 101.199 26.5701 101.199C38.2309 126.497 47.3221 130.239 60.9465 133.457C71.929 136.042 80.4801 136.47 87.8081 152.21L134.948 253.466L159.079 242.195L111.939 140.94C104.611 125.199 109.781 118.363 114.863 108.275C121.166 95.7491 124.141 86.3709 112.289 61.163C112.289 61.163 98.7689 32.1217 91.1143 15.6796C84.7227 1.94943 64.4712 10.8274 71.0124 24.878Z" fill="#FFC000"/>
</svg>
